<?xml version="1.0" encoding="utf-8"?>
<!-- Generator: Adobe Illustrator 27.0.0, SVG Export Plug-In . SVG Version: 6.00 Build 0)  -->
<svg version="1.1" id="Layer_1" xmlns="http://www.w3.org/2000/svg" xmlns:xlink="http://www.w3.org/1999/xlink" x="0px" y="0px"
	 viewBox="0 0 1136.9 344.4" style="enable-background:new 0 0 1136.9 344.4;" xml:space="preserve">
<style type="text/css">
	.st0{fill:#FFFFFF;}
</style>
<g>
	<path class="st0" d="M-44.1-55.2c412.7,0,825.3,0,1238,0c0,145.7,0,291.3,0,437c-412.7,0-825.3,0-1238,0
		C-44.1,236.1-44.1,90.5-44.1-55.2z M501,213.2c-0.5,4.6-1.2,9-1.6,13.4c-1.6,17.7-6.1,34.7-13,51.1c-4.1,9.7-9.6,18.5-18.2,24.9
		c-16.8,12.3-35.7,18.6-56.3,19.2c-15.3,0.4-30.7,0.3-46,0.2c-5.2,0-10.5-0.7-15.7-1.2c-4.3-0.5-7-3.1-7.7-7.4
		c-0.6-3.9-1-7.9-1-11.9c-0.1-85.7,0-171.5,0-257.2c0-2.3,0.4-4.6,0.6-7c0.4-4.3,2.8-6.9,6.7-8.5c5.5-2.3,11.3-3.7,17.2-4
		c11.2-0.5,22.5-0.7,33.7-1c1,0,2,0,3,0c0-5.1,0-10,0-14.6c-51.1,1.4-102.1,1.8-153.1-0.1c0,4.9,0,9.6,0,14.8c5.4,0,10.8-0.1,16.1,0
		c7.7,0.3,15.5,0.2,23,2.4c4.3,1.2,7.4,3.8,8.3,8.1c1,4.6,1.8,9.4,1.8,14c0.1,82.2,0.1,164.3,0.1,246.5c0,3.1-0.1,6.2-0.3,9.2
		c-0.7,10.5-4.1,14.3-14.4,16.4c-0.4,0.1-0.8,0.1-1.2,0.2c-10.1,0.4-20.1,0.8-30.2,1.2c-1,0-2.1,0.1-3.1,0.2c0,5,0,9.7,0,14.4
		c83.4,0,166.5,0,249.8,0c4.5-41.2,8.9-82.2,13.3-123.4C508.7,213.2,505,213.2,501,213.2z M789.5,321.8c-4,0-7.8,0.2-11.5-0.1
		c-5.6-0.4-11.2-1.2-16.8-1.9c-3.4-0.5-5.7-2.7-6.6-5.8c-1.1-3.5-1.9-7.1-2-10.7c-0.3-8.6-0.1-17.2-0.1-25.7
		c0-23.7-0.3-47.5,0.2-71.2c0.5-21.7,8.1-40.5,24.7-55.1c12.4-10.9,26.6-16.8,43.4-15.9c14.3,0.8,23.7,8.4,27.8,22.1
		c3.1,10.5,4.2,21.2,4.2,32.1c0,36.5,0,73,0,109.5c0,3.9-0.5,7.8-1,11.7c-0.8,5.7-4.2,9.2-10.1,9.7c-7,0.6-14.1,1.1-21.2,1.5
		c-1.6,0.1-3.3,0-5,0c0,5.2,0,9.9,0,15c35.9-1.7,71.7-1.8,107.6,0c0-5.2,0-9.9,0-14.8c-1.2-0.1-2.3-0.1-3.3-0.2
		c-7.1-0.4-14.1-0.6-21.2-1.2c-7.1-0.6-11-3.8-12.3-9.7c-0.4-1.9-0.5-4-0.5-6c0-31.9,0.1-63.8-0.1-95.7c-0.1-11.3-0.7-22.6-1.2-34
		c-0.4-7.7-2.1-15.2-6-22c-7.1-12.3-16.7-21.4-30.8-25.2c-14-3.8-28.1-4.5-42.3-2.1c-12.2,2.1-23,7.3-32.4,15.7
		c-8.5,7.6-15.1,16.6-20.2,26.7c-0.9,1.8-1.8,3.6-2.7,5.4c-0.2-0.1-0.4-0.1-0.6-0.2c0-16.3,0-32.5,0-49c-22.6,1.7-44.9,3.4-67.3,5.1
		c0,5.1,0,9.9,0,15.1c1.9,0,3.6-0.1,5.3,0c7.4,0.3,14.8,0.5,22,2.8c3.6,1.2,6.3,3.4,7.2,6.9c1.1,4.1,2.3,8.4,2.3,12.7
		c0.2,44.6,0.2,89.2,0.1,133.7c0,3.2-0.4,6.5-0.9,9.7c-0.8,5.6-4,9.2-9.8,9.7c-7.6,0.7-15.3,1.1-22.9,1.6c-1.1,0.1-2.2,0.2-3.3,0.2
		c0,5,0,9.7,0,14.7c35.9-1.8,71.6-1.8,107.4,0C789.5,331.8,789.5,327.1,789.5,321.8z M94.1,162.3c-0.2-0.5-0.3-0.8-0.3-1.2
		c-0.1-0.6-0.2-1.1-0.4-1.7C90.3,144,82.2,132.3,67,126.9c-10.5-3.7-21-3.3-30.7,2.9c-8.2,5.3-13.6,13-17.5,21.6
		C12.2,166,7.8,181.3,4.1,196.8c-0.8,3.4,0.3,5.2,3.7,6.2c5.9,1.7,9.3-0.1,11.1-5.8c0.4-1.3,0.7-2.6,1-3.9
		c3.2-12.7,6.7-25.3,11.8-37.4c2.6-6.1,5.6-11.9,10.5-16.5c5.3-5,13.8-5.6,18.4-1c3.3,3.3,4,7.6,4.3,11.9c0.7,10-0.9,19.8-3.3,29.4
		c-8.6,34.7-17.4,69.4-26.1,104.2c-3.6,14.4-7.3,28.7-10.8,43.1c-1.7,6.9,2.8,13.6,9.6,14.8c9.9,1.7,18.6-3.9,21-13.7
		c6-23.9,12-47.8,18-71.7c4.4-17.3,8.4-34.8,13.6-51.9c6.6-21.9,19.2-40.1,36.6-55c10.4-8.9,22.5-13.8,36.3-14.2
		c11.3-0.3,18.5,5,21.4,15.9c2.5,9.3,2.7,18.7,0.8,28c-3.1,14.9-6.4,29.8-10.7,44.4c-6.2,20.8-13.6,41.3-20.3,62
		c-3,9.3-4.6,18.7-2.3,28.5c5.5,23.3,27.1,33.2,48.6,25.7c10.3-3.6,18.3-10.6,24.8-19.2c9.3-12.4,15.5-26.4,20.2-41.1
		c1.1-3.3,1.9-6.7,2.4-10.2c0.2-1.4-0.3-3.5-1.2-4.2c-2.8-2.1-6.3-1.9-9.6-1.2c-2.4,0.5-2.6,2.8-3.3,4.6c-3.3,9.4-6.3,19-10,28.2
		c-4.1,10.2-9.5,19.7-17.7,27.2c-5.1,4.7-11.1,7.6-18.3,7.4c-5-0.2-8.4-2.6-9.2-7.5c-0.6-4-0.8-8.3-0.3-12.4
		c1.6-11.6,5.6-22.6,9.4-33.6c7.1-21.1,14.4-42.1,20.9-63.3c4.5-14.7,7.8-29.8,6.9-45.5c-0.4-7.5-1.7-14.8-5.2-21.5
		c-6.7-13-18.4-19-31.9-21.6c-15.8-3.1-31.2-0.6-45.7,6.5c-10.2,5-20,10.7-27.5,19.6C99.4,155.3,96.9,158.7,94.1,162.3z
		 M985.6,225.9c1.7,0,2.8,0,3.9,0c42.8,0,85.7,0,128.5,0c3,0,6-0.1,9-0.5c3.3-0.4,4.2-1.3,4.5-4.6c0.3-3.7,0.3-7.5,0.1-11.2
		c-0.9-21.8-7.1-41.7-20.6-59.2c-7.3-9.4-16.2-16.7-27.1-21.5c-12.5-5.4-25.7-7.4-39.2-7.2c-12,0.1-23.7,2.2-34.8,6.9
		c-15.2,6.4-27.6,16.6-38.1,29.2c-9.2,11-15.9,23.3-20.3,37c-3.7,11.6-5.3,23.6-5.4,35.7c-0.1,13.8,1.9,27.4,6.7,40.5
		c6.1,16.6,15.8,30.7,28.8,42.7c11.6,10.7,24.6,19.1,39.7,23.8c14.2,4.5,28.7,5.8,43.4,3.6c17.4-2.5,32.6-9.9,45.1-22.4
		c7.7-7.7,13.5-16.9,18.1-26.8c1.6-3.4,2.8-7.1,3.7-10.8c0.9-3.6-0.7-6.2-3.7-6.8c-3.9-0.9-6.4,0.6-7.9,4.2
		c-2.3,5.7-4.4,11.5-7.2,17c-5.4,10.2-12.9,18.5-22.8,24.6c-6.5,4-13.7,6.1-20.9,8c-12.6,3.2-25.2,2.6-37.2-2.4
		c-19.3-8.1-31.1-23.1-38.2-42.3c-3.8-10.2-5.6-20.9-6.5-31.7C986.3,243.2,986.1,234.7,985.6,225.9z M651.9,321.9
		c-1.8,0-3.2,0.1-4.7,0c-6.3-0.5-12.6-0.9-18.9-1.6c-4.7-0.6-7.8-3.5-8.6-8.2c-0.8-4.7-1.3-9.6-1.3-14.4
		c-0.1-56.5-0.1-113-0.1-169.5c0-1.1,0-2.2,0-3.6c-22.6,1.7-44.7,3.4-67,5.1c0,4.6,0,9,0,13.3c0,0.5,0.1,1,0.2,1.7
		c1.2,0,2.3-0.1,3.3,0c6.1,0.5,12.3,0.8,18.4,1.6c7.5,1,10.9,4.1,12.1,11.5c0.8,4.9,1.3,9.9,1.3,14.9c0.1,41.9,0.1,83.8,0,125.7
		c0,2.2-0.1,4.3-0.2,6.5c-0.1,1.2-0.2,2.5-0.4,3.7c-1.4,8.2-4,11-12.2,11.9c-7,0.8-14.1,0.9-21.2,1.3c-1,0.1-2.1,0.2-3,0.2
		c0,5,0,9.7,0,14.8c34.2-2,68.2-1.8,102.3-0.1C651.9,331.7,651.9,327.1,651.9,321.9z M595.1,66.5c14.6-0.3,25.6-11.4,25.3-25.6
		c-0.3-14.5-11.5-25.2-25.9-25.1c-14,0.1-25.1,12.7-24.9,25.5C569.8,55.7,581.2,66.8,595.1,66.5z"/>
	<path d="M501,213.2c4,0,7.7,0,11.8,0c-4.4,41.2-8.9,82.2-13.3,123.4c-83.3,0-166.5,0-249.8,0c0-4.7,0-9.4,0-14.4
		c1-0.1,2.1-0.1,3.1-0.2c10.1-0.4,20.1-0.8,30.2-1.2c0.4,0,0.8-0.1,1.2-0.2c10.3-2,13.6-5.9,14.4-16.4c0.2-3.1,0.3-6.2,0.3-9.2
		c0-82.2,0-164.3-0.1-246.5c0-4.7-0.7-9.4-1.8-14c-0.9-4.3-4.1-6.9-8.3-8.1c-7.5-2.2-15.3-2.2-23-2.4c-5.3-0.2-10.6,0-16.1,0
		c0-5.2,0-9.9,0-14.8c51,1.8,102,1.4,153.1,0.1c0,4.7,0,9.5,0,14.6c-1,0-2,0-3,0c-11.2,0.3-22.5,0.5-33.7,1
		c-5.9,0.3-11.7,1.7-17.2,4c-3.9,1.6-6.3,4.3-6.7,8.5c-0.2,2.3-0.6,4.6-0.6,7c0,85.7,0,171.5,0,257.2c0,4,0.4,8,1,11.9
		c0.7,4.2,3.3,6.9,7.7,7.4c5.2,0.6,10.4,1.2,15.7,1.2c15.3,0.1,30.7,0.2,46-0.2c20.7-0.6,39.6-6.8,56.3-19.2
		c8.7-6.4,14.1-15.2,18.2-24.9c6.9-16.4,11.4-33.4,13-51.1C499.9,222.2,500.5,217.8,501,213.2z"/>
	<path d="M789.5,321.8c0,5.3,0,10,0,15.1c-35.9-1.8-71.6-1.8-107.4,0c0-5.1,0-9.8,0-14.7c1.1-0.1,2.2-0.2,3.3-0.2
		c7.6-0.5,15.3-0.9,22.9-1.6c5.8-0.5,8.9-4.1,9.8-9.7c0.5-3.2,0.9-6.4,0.9-9.7c0-44.6,0.1-89.2-0.1-133.7c0-4.2-1.2-8.5-2.3-12.7
		c-1-3.6-3.6-5.8-7.2-6.9c-7.2-2.3-14.6-2.5-22-2.8c-1.7-0.1-3.5,0-5.3,0c0-5.1,0-9.9,0-15.1c22.3-1.7,44.6-3.4,67.3-5.1
		c0,16.5,0,32.8,0,49c0.2,0.1,0.4,0.1,0.6,0.2c0.9-1.8,1.8-3.6,2.7-5.4c5.2-10.1,11.7-19.1,20.2-26.7c9.4-8.3,20.2-13.5,32.4-15.7
		c14.2-2.5,28.3-1.7,42.3,2.1c14.1,3.8,23.7,12.9,30.8,25.2c3.9,6.8,5.6,14.2,6,22c0.6,11.3,1.2,22.6,1.2,34
		c0.2,31.9,0,63.8,0.1,95.7c0,2,0.1,4,0.5,6c1.3,5.9,5.2,9.1,12.3,9.7c7,0.6,14.1,0.8,21.2,1.2c1.1,0.1,2.1,0.1,3.3,0.2
		c0,4.9,0,9.6,0,14.8c-35.9-1.8-71.7-1.7-107.6,0c0-5.1,0-9.8,0-15c1.7,0,3.4,0.1,5,0c7.1-0.5,14.1-0.9,21.2-1.5
		c5.8-0.5,9.2-4,10.1-9.7c0.6-3.9,1-7.8,1-11.7c0.1-36.5,0-73,0-109.5c0-10.9-1.1-21.6-4.2-32.1c-4-13.7-13.5-21.3-27.8-22.1
		c-16.8-0.9-31,4.9-43.4,15.9c-16.5,14.6-24.2,33.5-24.7,55.1c-0.5,23.7-0.2,47.5-0.2,71.2c0,8.6-0.2,17.2,0.1,25.7
		c0.1,3.6,0.9,7.3,2,10.7c0.9,3.1,3.2,5.3,6.6,5.8c5.6,0.7,11.2,1.5,16.8,1.9C781.7,322.1,785.5,321.8,789.5,321.8z"/>
	<path d="M94.1,162.3c2.8-3.6,5.3-7,8.1-10.2c7.4-8.9,17.3-14.6,27.5-19.6c14.5-7.2,29.8-9.6,45.7-6.5c13.5,2.6,25.2,8.7,31.9,21.6
		c3.5,6.7,4.7,14,5.2,21.5c0.9,15.6-2.4,30.7-6.9,45.5c-6.5,21.3-13.8,42.3-20.9,63.3c-3.7,11.1-7.7,22-9.4,33.6
		c-0.6,4-0.4,8.3,0.3,12.4c0.8,4.9,4.3,7.3,9.2,7.5c7.2,0.2,13.1-2.7,18.3-7.4c8.3-7.5,13.6-17,17.7-27.2c3.7-9.3,6.7-18.8,10-28.2
		c0.7-1.9,0.9-4.1,3.3-4.6c3.3-0.7,6.8-1,9.6,1.2c1,0.7,1.5,2.9,1.2,4.2c-0.5,3.4-1.4,6.9-2.4,10.2c-4.7,14.7-10.9,28.7-20.2,41.1
		c-6.5,8.6-14.5,15.6-24.8,19.2c-21.5,7.5-43.1-2.4-48.6-25.7c-2.3-9.8-0.8-19.2,2.3-28.5c6.7-20.7,14.1-41.1,20.3-62
		c4.4-14.6,7.6-29.5,10.7-44.4c1.9-9.2,1.7-18.7-0.8-28c-3-10.8-10.2-16.2-21.4-15.9c-13.8,0.4-25.9,5.3-36.3,14.2
		c-17.4,14.8-30,33.1-36.6,55c-5.2,17.1-9.2,34.6-13.6,51.9c-6.1,23.9-12,47.8-18,71.7c-2.5,9.8-11.1,15.3-21,13.7
		c-6.7-1.1-11.3-7.8-9.6-14.8c3.5-14.4,7.2-28.8,10.8-43.1c8.7-34.7,17.5-69.4,26.1-104.2c2.4-9.6,4-19.4,3.3-29.4
		c-0.3-4.4-1.1-8.7-4.3-11.9c-4.5-4.5-13-4-18.4,1c-4.9,4.6-8,10.4-10.5,16.5c-5.1,12.1-8.6,24.7-11.8,37.4c-0.3,1.3-0.6,2.6-1,3.9
		c-1.8,5.7-5.2,7.5-11.1,5.8c-3.4-1-4.5-2.7-3.7-6.2c3.7-15.5,8-30.8,14.6-45.3c3.9-8.7,9.3-16.4,17.5-21.6
		c9.7-6.2,20.2-6.6,30.7-2.9c15.2,5.4,23.3,17,26.4,32.5c0.1,0.6,0.2,1.1,0.4,1.7C93.8,161.4,93.9,161.8,94.1,162.3z"/>
	<path d="M985.6,225.9c0.5,8.9,0.7,17.4,1.5,25.8c0.9,10.8,2.7,21.5,6.5,31.7c7.1,19.1,19,34.2,38.2,42.3c12,5,24.6,5.7,37.2,2.4
		c7.3-1.9,14.5-4,20.9-8c9.9-6.1,17.5-14.4,22.8-24.6c2.8-5.4,5-11.3,7.2-17c1.4-3.6,4-5.2,7.9-4.2c3,0.7,4.6,3.2,3.7,6.8
		c-0.9,3.7-2.1,7.4-3.7,10.8c-4.7,9.8-10.4,19.1-18.1,26.8c-12.5,12.5-27.6,19.9-45.1,22.4c-14.7,2.2-29.3,0.8-43.4-3.6
		c-15.1-4.8-28.1-13.1-39.7-23.8c-13-12-22.7-26.1-28.8-42.7c-4.8-13-6.8-26.6-6.7-40.5c0.1-12.1,1.7-24.1,5.4-35.7
		c4.3-13.7,11.1-26,20.3-37c10.5-12.6,22.8-22.8,38.1-29.2c11.1-4.7,22.8-6.8,34.8-6.9c13.6-0.2,26.7,1.8,39.2,7.2
		c11,4.7,19.9,12.1,27.1,21.5c13.5,17.4,19.7,37.4,20.6,59.2c0.2,3.7,0.1,7.5-0.1,11.2c-0.2,3.3-1.2,4.2-4.5,4.6c-3,0.3-6,0.5-9,0.5
		c-42.8,0-85.7,0-128.5,0C988.4,225.9,987.3,225.9,985.6,225.9z M1100.1,215.8c0-1.1,0-1.9,0-2.7c-0.1-10.4-1.6-20.6-4.2-30.6
		c-2.7-10.6-5.5-21.3-12-30.5c-9.4-13.2-22.3-20.3-38.4-19.4c-20.2,1.1-35.5,11.5-45.7,28.9c-7.2,12.3-10.7,25.9-12.2,40.1
		c-0.5,4.7-0.8,9.4-1.3,14.2C1024.4,215.8,1062.1,215.8,1100.1,215.8z"/>
	<path d="M651.9,321.9c0,5.2,0,9.8,0,15c-34.1-1.7-68.1-1.9-102.3,0.1c0-5.1,0-9.8,0-14.8c1-0.1,2-0.2,3-0.2
		c7.1-0.4,14.2-0.5,21.2-1.3c8.3-0.9,10.9-3.8,12.2-11.9c0.2-1.2,0.4-2.5,0.4-3.7c0.1-2.2,0.2-4.3,0.2-6.5c0-41.9,0-83.8,0-125.7
		c0-5-0.4-10-1.3-14.9c-1.3-7.4-4.7-10.5-12.1-11.5c-6.1-0.8-12.3-1.1-18.4-1.6c-1.1-0.1-2.1,0-3.3,0c-0.1-0.7-0.2-1.2-0.2-1.7
		c0-4.3,0-8.6,0-13.3c22.3-1.7,44.4-3.4,67-5.1c0,1.4,0,2.5,0,3.6c0,56.5,0,113,0.1,169.5c0,4.8,0.6,9.6,1.3,14.4
		c0.7,4.7,3.9,7.6,8.6,8.2c6.3,0.7,12.6,1.1,18.9,1.6C648.7,322,650.2,321.9,651.9,321.9z"/>
	<path d="M595.1,66.5c-13.9,0.3-25.3-10.8-25.5-25.2c-0.2-12.9,10.9-25.4,24.9-25.5c14.4-0.1,25.6,10.7,25.9,25.1
		C620.7,55.1,609.8,66.2,595.1,66.5z"/>
	<path class="st0" d="M1100.1,215.8c-38,0-75.7,0-113.8,0c0.4-4.9,0.7-9.6,1.3-14.2c1.6-14.1,5-27.8,12.2-40.1
		c10.2-17.4,25.5-27.7,45.7-28.9c16.1-0.9,29,6.2,38.4,19.4c6.5,9.2,9.3,19.8,12,30.5c2.6,10,4.1,20.2,4.2,30.6
		C1100.1,213.9,1100.1,214.7,1100.1,215.8z"/>
</g>
</svg>
